<?xml version="1.0" encoding="UTF-8"?>
<svg id="Layer_1" xmlns="http://www.w3.org/2000/svg" version="1.1" viewBox="0 0 110 110">
  <!-- Generator: Adobe Illustrator 29.7.1, SVG Export Plug-In . SVG Version: 2.1.1 Build 8)  -->
  <defs>
    <style>
      .st0 {
        fill: #ffb800;
      }

      .st1 {
        fill: #fff6e8;
      }

      .st2 {
        fill: none;
        stroke: #00a8cc;
        stroke-linecap: round;
        stroke-width: 2px;
      }
    </style>
  </defs>
  <rect class="st1" y="0" width="110" height="110" rx="8" ry="8"/>
  <path class="st2" d="M-76,116.2h20M-76,122.2h20M-76,128.2h12"/>
  <path class="st0" d="M42.8,20.4h26.2v-6.2c0-1,.8-1.8,1.8-1.8h11.4c1,0,1.8.8,1.8,1.8v6.2h4.6c3,0,5.8,1.2,7.8,3.2h0c2,2,3.2,4.8,3.2,7.8v51.7c0,3-1.2,5.8-3.2,7.8-2,2-4.8,3.2-7.8,3.2H23c-3,0-5.8-1.2-7.8-3.2-2-2-3.3-4.8-3.3-7.8V31.4c0-3,1.2-5.8,3.2-7.8,2-2,4.8-3.2,7.8-3.2h4.6v-6.2c0-1,.8-1.8,1.8-1.8h11.4c1,0,1.8.8,1.8,1.8v6.2h0ZM57.5,48.9l4.9,9.2,10.2,1.9c1,.2,1.7,1.1,1.5,2.1,0,.4-.2.7-.5.9l-7.2,7.5,1.4,10.3c.1,1-.6,1.9-1.6,2.1-.4,0-.7,0-1-.2l-9.4-4.5-9.4,4.5c-.9.4-2,0-2.5-.9-.2-.3-.2-.7-.2-1.1l1.4-10.3-7.2-7.5c-.7-.7-.7-1.9,0-2.6.3-.3.7-.4,1-.5l10.2-1.8,4.9-9.2c.5-.9,1.6-1.2,2.5-.7.3.2.6.4.7.7h0ZM59.6,60.6l-3.7-6.9-3.7,6.9c-.3.5-.7.8-1.3.9l-7.7,1.4,5.4,5.7c.4.4.6.9.5,1.5l-1.1,7.8,7.1-3.4c.5-.2,1.1-.3,1.6,0l7.1,3.4-1.1-7.8c0-.5,0-1.1.5-1.5l5.4-5.7-7.7-1.4c-.6,0-1.1-.4-1.4-1h0ZM69,24.1h-26.2v3c0,2.1-.8,4-2.2,5.3-1.4,1.4-3.3,2.2-5.3,2.2s-4-.8-5.3-2.2h0c-1.4-1.4-2.2-3.3-2.2-5.3v-3h-4.6c-2,0-3.9.8-5.2,2.2-1.3,1.3-2.2,3.2-2.2,5.2v8.1h80.4v-8.1c0-2-.8-3.9-2.2-5.2-1.3-1.3-3.2-2.2-5.2-2.2h-4.6v3c0,2.1-.8,4-2.2,5.3-1.4,1.4-3.3,2.2-5.3,2.2s-4-.8-5.3-2.2h0c-1.4-1.4-2.2-3.3-2.2-5.3v-3ZM80.4,16h-7.7v11.1c0,1.1.4,2,1.1,2.7.7.7,1.7,1.1,2.7,1.1s2-.4,2.7-1.1,1.1-1.7,1.1-2.7v-11.1ZM39.1,16h-7.7v11.1c0,1.1.4,2,1.1,2.7.7.7,1.7,1.1,2.7,1.1s2-.4,2.7-1.1,1.1-1.7,1.1-2.7v-11.1ZM96.1,43.2H15.7v40c0,2,.8,3.9,2.2,5.2,1.3,1.3,3.2,2.2,5.2,2.2h65.7c2,0,3.9-.8,5.2-2.2,1.3-1.3,2.2-3.2,2.2-5.2v-40h0Z"/>
</svg>