<?xml version="1.0" encoding="UTF-8"?>
<svg id="Layer_1" xmlns="http://www.w3.org/2000/svg" version="1.1" viewBox="0 0 110 110">
  <!-- Generator: Adobe Illustrator 29.7.1, SVG Export Plug-In . SVG Version: 2.1.1 Build 8)  -->
  <defs>
    <style>
      .st0 {
        fill: #e8f5f8;
      }

      .st1 {
        fill: none;
        stroke: #00a8cc;
        stroke-linecap: round;
        stroke-width: 2px;
      }

      .st2 {
        fill: #00a8cc;
      }
    </style>
  </defs>
  <rect class="st0" width="110" height="110" rx="8" ry="8"/>
  <path class="st2" d="M99.97,48.27c-2.46-2.81-6.76-3.1-9.57-.64l-2.04,1.79c-.16-.22-.32-.44-.51-.65-1.19-1.36-2.84-2.17-4.66-2.3-1.82-.12-3.56.47-4.92,1.66l-8.3,7.27h-29.59c-4.64,0-8.61,1.71-11.81,5.08l-4.36,4.61-1.29-2.08c-.4-.65-1.02-1.1-1.76-1.27-.74-.18-1.49-.06-2.13.34l-7.35,4.55c-1.33.82-1.74,2.56-.92,3.89l14.69,23.81c.4.65,1.01,1.09,1.75,1.26.22.06.44.08.66.08.52,0,1.02-.14,1.48-.42l7.36-4.54c1.32-.82,1.73-2.56.91-3.89l-1.17-1.9h25.86c4.11,0,7.62-1.32,10.71-4.03l26.32-23.04c2.81-2.46,3.09-6.76.63-9.57ZM80.16,50.29c.78-.68,1.79-1.02,2.84-.96,1.05.07,2.01.54,2.69,1.33.18.21.34.44.48.67l-9.67,8.47c-.31-.82-.77-1.59-1.38-2.23-.51-.54-1.1-1-1.74-1.34l6.78-5.94ZM27.86,92.81l-14.66-23.76,7.31-4.52,12.12,19.64s.06.09.08.14l2.46,3.99-7.32,4.51ZM97.46,55.71l-26.32,23.04c-2.55,2.23-5.43,3.32-8.83,3.32h-27.62l-8.92-14.45,4.89-5.16c2.64-2.78,5.9-4.19,9.73-4.19h29.77c1.1,0,2.11.44,2.87,1.25s1.13,1.86,1.05,2.96h0c-.15,2.03-1.84,3.64-3.92,3.64h-17.82c-.79,0-1.43.64-1.43,1.43s.64,1.43,1.43,1.43h17.83c3.37,0,6.17-2.46,6.7-5.69l15.42-13.5c1.6-1.4,4.14-1.24,5.54.37,1.42,1.62,1.25,4.11-.37,5.54Z"/>
  <path class="st2" d="M44.25,43.11h5.65c.17,0,.29.06.37.21l2.15,3.73c.6,1.02,1.66,1.63,2.83,1.63s2.25-.61,2.84-1.64l2.15-3.72c.08-.15.19-.21.37-.21h5.64c3.34,0,6.05-2.71,6.05-6.05v-15.25c0-3.34-2.71-6.05-6.05-6.05h-22.01c-3.34,0-6.05,2.71-6.05,6.05v15.26c0,3.33,2.72,6.04,6.05,6.04ZM41.06,21.81c0-1.76,1.43-3.19,3.19-3.19h22c1.76,0,3.2,1.43,3.2,3.19v15.26c0,1.76-1.44,3.19-3.2,3.19h-5.64c-1.18,0-2.25.61-2.84,1.64l-2.15,3.72c-.08.15-.19.21-.37.21-.17,0-.29-.06-.37-.21l-2.14-3.73c-.59-1.02-1.65-1.64-2.84-1.64h-5.65c-1.76,0-3.19-1.43-3.19-3.19v-15.25h0ZM49.76,25.2c0-3.03,2.46-5.5,5.5-5.5s5.51,2.46,5.51,5.5c0,2.02-1.11,3.87-2.9,4.84-.77.42-1.18,1.12-1.18,1.98v1.67c0,.79-.64,1.43-1.43,1.43s-1.43-.64-1.43-1.43v-1.67c0-1.91,1.01-3.59,2.67-4.49.86-.46,1.39-1.36,1.39-2.32,0-1.46-1.19-2.64-2.65-2.64s-2.64,1.18-2.64,2.64c0,.79-.64,1.43-1.43,1.43s-1.42-.65-1.42-1.44ZM56.78,37.36v.39c0,.79-.64,1.43-1.43,1.43s-1.43-.64-1.43-1.43v-.39c0-.79.64-1.43,1.43-1.43s1.43.64,1.43,1.43Z"/>
  <path class="st1" d="M-75.96,116.19h20M-75.96,122.19h20M-75.96,128.19h12"/>
</svg>