<?xml version="1.0" encoding="UTF-8"?>
<svg id="Layer_1" xmlns="http://www.w3.org/2000/svg" version="1.1" viewBox="0 0 110 110">
  <!-- Generator: Adobe Illustrator 29.7.1, SVG Export Plug-In . SVG Version: 2.1.1 Build 8)  -->
  <defs>
    <style>
      .st0 {
        fill: #e3fffa;
      }

      .st1 {
        fill: #00d4aa;
        fill-rule: evenodd;
      }

      .st2 {
        fill: none;
        stroke: #00a8cc;
        stroke-linecap: round;
        stroke-width: 2px;
      }
    </style>
  </defs>
  <rect class="st0" y="0" width="110" height="110" rx="8" ry="8"/>
  <path class="st2" d="M-76,116.2h20M-76,122.2h20M-76,128.2h12"/>
  <path class="st1" d="M69.3,22.7v6h22.7c2.3,0,4.1,1.8,4.1,4.1h0s0,20,0,20c0,.6-.3,1.1-.8,1.4-1,.5-2,1-3,1.5v28.5c0,2.2-1.9,4.1-4.1,4.1H24c-2.2,0-4.1-1.8-4.1-4.1v-28c-1-.4-2-.9-2.9-1.3-.5-.3-.9-.8-.9-1.4v-20.5s0,0,0,0c0-2.3,1.8-4.1,4.1-4.1h22.7v-6c0-3.2,2.6-5.7,5.7-5.7h14.9c3.2,0,5.7,2.6,5.7,5.7ZM45.9,22.7c0-1.5,1.2-2.7,2.7-2.7h14.9c1.5,0,2.7,1.2,2.7,2.7v6h-20.3v-6ZM63.7,62.2c8.7-.5,17.4-2.1,25.6-5.3v27.2c0,.6-.5,1.1-1.1,1.1H24c-.6,0-1.1-.5-1.1-1.1v-26.8c8.2,3,16.9,4.6,25.6,5v2.6c0,1.6,1.3,3,3,3h9.3c1.6,0,3-1.3,3-3v-2.6ZM63.7,59.2c10.2-.6,20.3-2.8,29.4-7.3v-19.1c0-.6-.5-1.1-1.1-1.1H20.2c-.6,0-1.1.5-1.1,1.1h0s0,19.6,0,19.6c9.1,4.2,19.2,6.3,29.4,6.9v-.7c0-1.6,1.3-3,3-3h9.3c1.6,0,3,1.3,3,3v.7ZM51.5,64.8v-6.2h9.1v6.2h-9.1Z"/>
</svg>