<?xml version="1.0" encoding="UTF-8"?>
<svg id="Layer_1" xmlns="http://www.w3.org/2000/svg" version="1.1" viewBox="0 0 110 110">
  <!-- Generator: Adobe Illustrator 29.7.1, SVG Export Plug-In . SVG Version: 2.1.1 Build 8)  -->
  <defs>
    <style>
      .st0 {
        fill: #f7eeff;
      }

      .st1 {
        fill: #9b7ede;
      }

      .st2 {
        fill: none;
        stroke: #00a8cc;
        stroke-linecap: round;
        stroke-width: 2px;
      }
    </style>
  </defs>
  <rect class="st0" y="0" width="110" height="110" rx="8" ry="8"/>
  <path class="st2" d="M-76,116.2h20M-76,122.2h20M-76,128.2h12"/>
  <path class="st1" d="M55.3,30.5c-12.3,0-22.3,10-22.3,22.3s2.3,11.6,6.5,15.8c1.6,1.6,2.3,3.4,2.3,5.6v1.6c-1.1.7-1.9,2-1.9,3.4s1.4,3.6,3.2,4c-.2.5-.3,1-.3,1.6,0,2.3,1.8,4.1,4.1,4.1h.7v1.3c0,2.8,2.3,5.1,5.1,5.1h5.3c2.8,0,5.1-2.3,5.1-5.1v-1.3h.7c2.3,0,4.1-1.8,4.1-4.1s-.1-1.1-.3-1.6c1.8-.4,3.2-2.1,3.2-4s-.8-2.7-1.9-3.4v-1.6c0-2.2.8-4.1,2.3-5.6,4.2-4.2,6.5-9.8,6.5-15.8,0-12.3-10-22.3-22.4-22.3h0ZM60.4,90.3c0,1.4-1.1,2.5-2.5,2.5h-5.3c-1.4,0-2.5-1.1-2.5-2.5v-1.3h10.2s0,1.3,0,1.3ZM63.7,86.4h-16.9c-.8,0-1.5-.7-1.5-1.5s.7-1.5,1.5-1.5h16.9c.8,0,1.5.7,1.5,1.5s-.7,1.5-1.5,1.5ZM66.6,80.8h-22.6c-.8,0-1.5-.7-1.5-1.5s.7-1.5,1.5-1.5h22.6c.8,0,1.5.7,1.5,1.5s-.7,1.5-1.5,1.5ZM49.5,56.6h-2.2c-1.2,0-2.2-1-2.2-2.2s1-2.2,2.2-2.2,2.2,1,2.2,2.2v2.2ZM52.1,59.3h6.3v16h-6.3v-16ZM69.2,66.8c-2.1,2.1-3.1,4.6-3.1,7.5v.9h-5.2v-16h2.2c2.6,0,4.8-2.2,4.8-4.8s-2.2-4.8-4.8-4.8-4.8,2.2-4.8,4.8v2.2h-6.3v-2.2c0-2.6-2.2-4.8-4.8-4.8s-4.8,2.2-4.8,4.8,2.2,4.8,4.8,4.8h2.2v16h-5.2v-.9c0-2.9-1-5.4-3.1-7.5-3.7-3.7-5.8-8.7-5.8-13.9,0-10.9,8.8-19.7,19.7-19.7s19.7,8.8,19.7,19.7c0,5.3-2.1,10.2-5.8,13.9h0ZM61,56.6v-2.2c0-1.2,1-2.2,2.2-2.2s2.2,1,2.2,2.2-1,2.2-2.2,2.2h-2.2ZM54,23.7v-10.3c0-.7.6-1.3,1.3-1.3s1.3.6,1.3,1.3v10.3c0,.7-.6,1.3-1.3,1.3s-1.3-.6-1.3-1.3ZM68.7,27l5.2-8.9c.4-.6,1.2-.8,1.8-.5.6.4.8,1.1.5,1.8l-5.2,8.9c-.2.4-.7.6-1.1.6s-.4,0-.7-.2c-.6-.4-.8-1.1-.5-1.8h0ZM90.1,34.3l-8.9,5.2c-.2.1-.4.2-.7.2-.4,0-.9-.2-1.1-.7-.4-.6-.1-1.4.5-1.8l8.9-5.2c.6-.4,1.4-.1,1.8.5.4.6.1,1.4-.5,1.8h0ZM96.1,52.9c0,.7-.6,1.3-1.3,1.3h-10.3c-.7,0-1.3-.6-1.3-1.3s.6-1.3,1.3-1.3h10.3c.7,0,1.3.6,1.3,1.3ZM34.4,19.3c-.4-.6-.1-1.4.5-1.8s1.4-.1,1.8.5l5.2,8.9c.4.6.1,1.4-.5,1.8-.2.1-.4.2-.7.2-.5,0-.9-.2-1.1-.6,0,0-5.2-9-5.2-8.9ZM31.1,38.9c-.2.4-.7.7-1.1.7s-.5,0-.6-.2l-9-5.2c-.6-.4-.8-1.2-.5-1.8.4-.6,1.1-.8,1.8-.5l8.9,5.2c.6.4.8,1.2.5,1.8ZM27.4,52.9c0,.7-.6,1.3-1.3,1.3h-10.3c-.7,0-1.3-.6-1.3-1.3s.6-1.3,1.3-1.3h10.3c.7,0,1.3.6,1.3,1.3h0Z"/>
</svg>