<?xml version="1.0" encoding="UTF-8"?>
<svg id="Layer_1" xmlns="http://www.w3.org/2000/svg" version="1.1" viewBox="0 0 110 110">
  <!-- Generator: Adobe Illustrator 29.7.1, SVG Export Plug-In . SVG Version: 2.1.1 Build 8)  -->
  <defs>
    <style>
      .st0 {
        fill: #f7eeff;
      }

      .st1 {
        fill: #9b7ede;
      }

      .st2 {
        fill: none;
        stroke: #00a8cc;
        stroke-linecap: round;
        stroke-width: 2px;
      }
    </style>
  </defs>
  <rect class="st0" y="0" width="110" height="110" rx="8" ry="8"/>
  <path class="st2" d="M-75.96,116.19h20M-75.96,122.19h20M-75.96,128.19h12"/>
  <path class="st1" d="M55.26,30.55c-12.32,0-22.34,10.02-22.34,22.34,0,5.95,2.31,11.55,6.52,15.77,1.57,1.57,2.32,3.41,2.32,5.61v1.59c-1.14.73-1.89,2-1.89,3.44,0,1.94,1.36,3.58,3.18,4-.21.49-.32,1.03-.32,1.59,0,2.26,1.83,4.1,4.09,4.1h.72v1.31c0,2.79,2.27,5.07,5.07,5.07h5.29c2.79,0,5.07-2.27,5.07-5.07v-1.31h.72c2.26,0,4.1-1.83,4.1-4.1,0-.56-.12-1.1-.32-1.59,1.82-.42,3.18-2.05,3.18-3.99,0-1.45-.75-2.72-1.89-3.44v-1.59c0-2.2.76-4.05,2.32-5.61,4.21-4.22,6.52-9.82,6.52-15.77-.02-12.33-10.04-22.34-22.36-22.34ZM60.38,90.31c0,1.36-1.1,2.47-2.47,2.47h-5.29c-1.36,0-2.47-1.1-2.47-2.47v-1.31h10.23v1.31ZM63.69,86.39h-16.87c-.82,0-1.49-.67-1.49-1.49s.66-1.49,1.49-1.49h16.87c.82,0,1.49.66,1.49,1.49s-.66,1.49-1.49,1.49ZM66.55,80.8h-22.57c-.82,0-1.49-.67-1.49-1.49s.67-1.49,1.49-1.49h22.57c.82,0,1.49.66,1.49,1.49s-.66,1.49-1.49,1.49ZM49.52,56.64h-2.2c-1.21,0-2.2-.98-2.2-2.2s.98-2.2,2.2-2.2,2.2.98,2.2,2.2v2.2ZM52.13,59.25h6.27v15.96h-6.27v-15.96ZM69.24,66.82c-2.05,2.05-3.08,4.56-3.08,7.46v.94h-5.15v-15.96h2.2c2.64,0,4.8-2.15,4.8-4.8s-2.15-4.8-4.8-4.8-4.8,2.15-4.8,4.8v2.2h-6.27v-2.2c0-2.64-2.15-4.8-4.8-4.8s-4.8,2.15-4.8,4.8,2.15,4.8,4.8,4.8h2.2v15.96h-5.15v-.94c0-2.9-1.04-5.4-3.08-7.46-3.71-3.73-5.76-8.68-5.76-13.94,0-10.88,8.85-19.73,19.74-19.73s19.74,8.85,19.74,19.73c-.03,5.26-2.07,10.21-5.78,13.94ZM61,56.64v-2.2c0-1.21.98-2.2,2.2-2.2s2.2.98,2.2,2.2-.98,2.2-2.2,2.2h-2.2ZM53.96,23.69v-10.32c0-.72.58-1.3,1.3-1.3s1.3.58,1.3,1.3v10.33c0,.72-.58,1.3-1.3,1.3-.72,0-1.3-.59-1.3-1.31ZM68.73,26.95l5.16-8.94c.36-.62,1.15-.83,1.78-.48.62.36.83,1.15.48,1.78l-5.16,8.94c-.24.42-.68.65-1.13.65-.22,0-.45-.06-.65-.18-.63-.35-.84-1.15-.48-1.78ZM90.14,34.26l-8.94,5.16c-.2.12-.43.18-.65.18-.45,0-.89-.24-1.13-.65-.36-.62-.14-1.42.48-1.78l8.94-5.16c.62-.36,1.42-.14,1.78.48.36.61.14,1.41-.48,1.78ZM96.08,52.89c0,.72-.58,1.3-1.3,1.3h-10.33c-.72,0-1.3-.58-1.3-1.3s.58-1.3,1.3-1.3h10.33c.72,0,1.3.58,1.3,1.3ZM34.37,19.31c-.36-.62-.14-1.41.48-1.78s1.42-.14,1.78.48l5.16,8.94c.36.62.14,1.42-.48,1.78-.2.12-.43.18-.65.18-.45,0-.89-.24-1.13-.65,0,0-5.16-8.95-5.16-8.95ZM31.11,38.94c-.24.42-.68.65-1.13.65-.22,0-.45-.06-.65-.18l-8.95-5.16c-.62-.36-.83-1.15-.48-1.78.36-.62,1.15-.83,1.78-.48l8.94,5.16c.63.37.84,1.16.49,1.79ZM27.36,52.89c0,.72-.58,1.3-1.3,1.3h-10.32c-.72,0-1.3-.58-1.3-1.3s.58-1.3,1.3-1.3h10.33c.72,0,1.3.58,1.3,1.3Z"/>
</svg>