<svg width="44" height="60" viewBox="0 0 44 60" fill="none" xmlns="http://www.w3.org/2000/svg">
<path d="M26.9287 12.5664C25.8021 12.8207 25.2388 13.2841 25.4569 13.7656C25.6023 14.0836 25.9475 14.1472 26.32 13.911C26.8378 13.593 27.392 13.4385 28.0643 13.4385C29.0819 13.4385 29.8268 13.7838 30.2539 14.4561C30.5627 14.9467 30.8353 14.9376 31.3259 14.4106C31.7802 13.92 32.2708 13.7656 33.0702 13.8474C33.8607 13.9291 34.3967 14.1381 34.86 14.5378C35.4415 15.0557 35.6777 15.6462 35.7231 16.7274C35.7958 18.3173 35.3234 19.3075 34.2059 19.9162C34.0242 20.0162 33.9243 20.1434 33.9243 20.2615C33.9243 21.0973 34.7783 20.961 35.6868 19.9798C36.4499 19.1531 36.8133 17.9448 36.7134 16.5002C36.6316 15.2192 36.0956 14.2108 35.1871 13.6112C34.4694 13.1478 33.9697 12.9752 33.1429 12.9298C32.2889 12.8753 31.6166 13.0024 31.1533 13.3204L30.8353 13.5385L30.381 13.2114C30.1357 13.0388 29.6997 12.8117 29.4089 12.7026C28.7639 12.4755 27.6101 12.4119 26.9287 12.5664Z" fill="#294971"/>
<path d="M7.74085 14.0653C7.1594 14.8194 6.99587 15.2918 6.98679 16.2185C6.98679 17.1997 7.14123 17.7084 7.70451 18.5533L8.09517 19.153L7.77719 19.2075C7.25026 19.2892 6.47802 19.7344 5.97833 20.225C5.50591 20.7065 4.94263 21.6786 4.94263 22.0239C4.94263 22.3146 5.19701 22.6235 5.44231 22.6235C5.61493 22.6235 5.71486 22.4963 6.02376 21.8603C6.65064 20.5702 7.38653 20.0887 9.02186 19.907C11.1024 19.6799 12.7104 20.2795 13.3464 21.5333C13.6371 22.1056 13.7916 22.9324 13.7098 23.4866C13.6189 24.1589 13.6462 24.4678 13.8188 24.595C13.9097 24.6677 14.2549 24.7131 14.6547 24.7131C15.0362 24.7131 15.4996 24.7585 15.6813 24.8039C16.0259 24.8901 16.081 24.9727 16.3195 25.1771C16.5921 25.3816 16.7965 25.3134 16.9328 25.1771C17.1712 24.8024 16.8306 24.4958 16.558 24.2232C16.2514 23.9847 16.1083 23.8863 15.2906 23.8227C14.7001 23.7864 14.6819 23.7773 14.6274 23.5048C14.6001 23.3594 14.5729 22.9869 14.5729 22.6689C14.5729 21.3243 13.728 20.0251 12.4379 19.3983C11.9291 19.1439 10.7844 18.8986 10.1393 18.8986C9.45795 18.8986 9.07637 18.7441 8.71296 18.3444C7.72268 17.2451 7.66817 15.7006 8.57669 14.6558C9.04003 14.1289 8.89467 13.6292 8.28596 13.6292C8.13152 13.6292 7.96798 13.7655 7.74085 14.0653Z" fill="#004669"/>
<path d="M30.1186 18.3159C28.9648 18.5976 28.1744 19.1518 27.5384 20.1148C27.0478 20.878 26.8571 21.7229 26.9297 22.9403C27.0115 24.4848 27.5294 25.5568 28.5378 26.3109C29.1829 26.7742 29.7825 27.0195 30.7001 27.174C31.4723 27.3012 32.081 27.6646 32.4535 28.2188C32.8169 28.7457 32.9259 29.2454 32.8805 30.0721C32.8078 31.3077 32.29 32.0799 31.1634 32.6614C30.6001 32.9521 30.582 32.9703 30.582 33.3155C30.582 33.6698 30.582 33.6698 30.9726 33.6971C31.4632 33.7334 32.1264 33.3882 32.7351 32.7704C34.2342 31.2532 34.2615 28.5912 32.8078 27.2285C32.2355 26.6924 31.7721 26.4744 30.5911 26.1655C30.0459 26.0201 29.4645 25.8112 29.2919 25.7113C28.8558 25.4387 28.3198 24.7301 28.0745 24.1123C27.8019 23.4127 27.7747 21.9227 28.02 21.205C28.2107 20.6508 28.8467 19.9058 29.3918 19.5879C29.8552 19.3153 30.8273 19.07 31.118 19.1427C31.4178 19.2154 31.754 18.8883 31.6631 18.6067C31.6358 18.4976 31.5632 18.3523 31.5177 18.2887C31.3996 18.1524 30.7364 18.1615 30.1186 18.3159Z" fill="#004669"/>
<path d="M24.5662 0.137815C26.1471 -0.143824 27.101 -0.0075105 28.5183 0.673875C29.3995 1.10996 30.0174 1.59147 30.4171 2.17292L30.6805 2.54542H31.3711C32.7338 2.54543 34.3964 3.12684 35.3958 3.93541C35.9772 4.41693 36.7222 5.47084 37.0038 6.22491C37.131 6.57014 37.1946 6.94263 37.1946 7.38779V8.0419L37.6307 8.2145C39.2115 8.85955 40.8105 10.5767 41.3556 12.2211C41.7644 13.4476 41.8098 14.6287 41.5009 15.9006L41.3556 16.4911L41.7735 16.9454C42.2914 17.5086 42.9546 18.7987 43.209 19.7617C43.3544 20.325 43.3998 20.7702 43.3998 21.7151C43.4089 22.8325 43.3816 23.0051 43.1544 23.6956C43.0091 24.1044 42.6457 24.8858 42.3459 25.4218L41.8008 26.3939L41.7645 27.2843C41.7009 29.0014 41.292 30.5277 40.6106 31.5543C39.5386 33.1715 37.8941 34.3525 35.9136 34.9248L35.1959 35.1247L34.7144 35.9424C34.0875 36.9872 33.497 37.8685 32.8883 38.6498C32.3341 39.3584 31.5981 40.7212 31.262 41.666C31.1348 42.0204 30.944 42.8381 30.835 43.4831C30.726 44.1281 30.5807 44.8004 30.5171 44.973C30.4535 45.1456 30.3535 45.4183 30.299 45.5727C30.1991 45.818 30.2263 45.8998 30.4988 46.3631C30.8895 47.0081 31.0531 47.7713 30.9259 48.4072C30.7805 49.1795 30.5443 49.5338 30.0264 49.7519L29.7902 49.8427L29.8266 50.8511C29.8538 52.0594 29.6903 52.5682 29.1633 52.8862L28.8453 53.077L28.8999 53.7766C28.9726 54.7305 28.7908 55.3392 28.2457 55.9479C27.6734 56.5839 27.2827 56.8019 26.6286 56.8655C26.0835 56.92 26.0744 56.92 25.9563 57.2834C25.7746 57.8285 24.9478 58.8643 24.3936 59.2549C23.5669 59.8364 23.0217 59.9999 21.9315 59.9999C20.3507 60.0089 19.206 59.582 18.252 58.6462C17.8523 58.2555 17.6252 57.9285 17.4344 57.4924L17.1709 56.8746H16.753C15.8627 56.8746 14.9178 56.1387 14.6089 55.2211C14.509 54.9031 14.4726 54.5397 14.4999 53.9128L14.5272 53.0588L14.2637 52.8862C13.7186 52.5319 13.6186 52.223 13.6186 50.9874C13.6186 49.9972 13.6005 49.8699 13.4551 49.8245C13.1462 49.7246 12.6738 49.234 12.5648 48.8979C12.374 48.3618 12.4285 47.2625 12.6556 46.7446C12.7646 46.4994 12.9191 46.2268 13.0008 46.136C13.1371 45.9906 13.1281 45.9179 12.9555 45.3183C12.8464 44.9549 12.7011 44.2917 12.6193 43.8465C12.5375 43.4013 12.374 42.7109 12.2468 42.302C11.8925 41.1846 10.9385 39.313 10.239 38.3954C9.90281 37.9502 9.25778 37.0054 8.80352 36.3059L7.98586 35.0339L7.32264 34.8703C6.08706 34.5705 4.27908 33.4712 3.49776 32.5355C2.23494 31.0364 1.63531 29.2739 1.68982 27.2933L1.71711 26.2849L1.39005 25.8852C0.908542 25.3037 0.526912 24.6496 0.245272 23.9318C0.00906483 23.3413 0 23.2141 0 21.9422C5.67175e-07 20.852 0.0454445 20.4159 0.199891 19.789C0.508786 18.5444 1.19017 17.3542 1.98966 16.6455L2.41666 16.2731L2.15315 15.6553C1.91695 15.0738 1.8988 14.9557 1.90788 13.811C1.90788 12.6935 1.93515 12.53 2.16227 11.9486C2.78006 10.3677 4.12464 8.96863 5.56009 8.40535L6.19609 8.16001L6.15064 7.82391C6.08705 7.33331 6.26878 6.47929 6.58676 5.83424C7.44076 4.0899 9.56666 2.8089 11.8561 2.66354L12.7192 2.60897L13.2007 2.02753C13.982 1.06451 15.2812 0.337734 16.644 0.092434C17.2073 -0.0165878 18.67 0.0560624 19.2787 0.219595C19.9601 0.401301 20.696 0.873761 21.2138 1.45521L21.659 1.94575L21.8135 1.72776C22.3404 0.946439 23.3761 0.346775 24.5662 0.137815ZM18.2612 56.9639C18.8063 57.9659 19.5217 59.1406 21.7362 59.2097C23.711 59.2714 24.7003 58.2769 25.075 56.9639H18.2612ZM15.4993 53.2406L15.3993 53.5222C15.1449 54.249 15.4266 55.1848 16.0171 55.5754L16.326 55.7844H27.0192L27.3736 55.4664C27.8823 55.003 28.0549 54.5942 27.9913 53.9583C27.9641 53.6676 27.9187 53.3951 27.8823 53.3405C27.846 53.2678 25.9381 53.2406 21.659 53.2406H15.4993ZM28.7908 50.088C28.7363 50.0517 25.5384 50.0244 21.6772 50.0426L14.6543 50.0607L14.5726 50.297C14.4726 50.5514 14.4636 51.5325 14.5635 51.8687L14.618 52.0867L21.6136 52.0686L28.6092 52.0594L28.7455 51.8596C28.8363 51.7233 28.8817 51.4326 28.8817 50.9057C28.8817 50.4969 28.8363 50.1244 28.7908 50.088ZM14.1365 46.3358L13.8185 46.6901C13.4551 47.099 13.3461 47.4715 13.4097 48.1983C13.4823 49.0523 12.6466 48.9796 21.6499 48.9251C27.7095 48.8796 29.6356 48.8433 29.7084 48.7616C29.763 48.698 29.8811 48.4617 29.9628 48.2255C30.1173 47.8167 30.1172 47.7895 29.9174 47.3443C29.8084 47.0899 29.5812 46.7537 29.4086 46.6084L29.0997 46.3358H14.1365ZM26.1652 1.03726C24.5208 0.910068 23.04 1.5642 22.4494 2.67259L22.2495 3.04509V16.2851C22.2495 16.4555 22.0428 16.9325 21.8044 16.9325C21.5863 16.9325 21.2593 16.7962 21.2048 16.2851V11.249L20.7778 11.3217C20.5325 11.3671 19.951 11.4034 19.4785 11.4034C18.7063 11.3944 18.5519 11.3671 18.0068 11.1127C17.3163 10.7857 16.6167 10.1497 16.3442 9.58639C16.2079 9.30476 16.1625 9.0322 16.1625 8.40535C16.1625 7.68762 16.1988 7.52408 16.4169 7.06074C16.6713 6.55197 16.6894 6.53376 16.9983 6.56101C17.5162 6.60644 17.607 6.8427 17.3435 7.45141C17.1891 7.79663 17.1255 8.12372 17.1164 8.50529C17.1164 8.97768 17.1528 9.11396 17.3799 9.42283C17.6797 9.84075 18.0341 10.1133 18.5428 10.3314C18.9608 10.504 20.0782 10.5221 20.7414 10.3586L21.2048 10.2496V7.15157C21.1957 3.60836 21.1411 2.96333 20.805 2.44548C20.487 1.97305 19.8238 1.50061 19.1606 1.27348C17.0892 0.58301 14.4272 1.50061 13.5823 3.19953C13.2189 3.92634 13.2007 4.5169 13.5369 5.13469C13.8094 5.66161 13.7913 5.90694 13.4551 6.07047C13.2371 6.17948 13.1735 6.17039 12.9918 6.0523C12.6284 5.82517 12.3649 5.14374 12.3195 4.34424L12.2741 3.63564H11.8288C10.675 3.63565 9.21231 4.2716 8.28563 5.18919C7.577 5.87966 7.16819 6.65191 7.06825 7.48774C7.00466 8.02374 7.00466 8.02378 7.22269 7.96018C7.3408 7.92384 7.84959 7.86933 8.35836 7.84207C10.0573 7.74214 11.1293 8.09643 12.1832 9.11395C13.2643 10.1497 13.4914 10.7311 13.5641 12.6753C13.6368 14.3288 13.7368 14.6378 14.3909 15.201C14.8906 15.628 15.5629 15.8188 16.5895 15.837C17.4162 15.8551 17.4344 15.8551 17.5162 16.1004C17.5797 16.273 17.5707 16.4275 17.4889 16.591L17.3799 16.8364L16.3624 16.7818C15.2177 16.7273 14.7543 16.591 14.0547 16.1186C13.5278 15.7552 13.1916 15.3191 12.9191 14.6195C12.7646 14.2289 12.7192 13.8927 12.7011 12.9479C12.6829 12.1484 12.6283 11.6305 12.5284 11.358C12.0378 9.97706 10.8931 9.0231 9.48491 8.82323C8.78535 8.73238 7.4044 8.84144 6.67759 9.0504C5.31482 9.44106 3.95202 10.4949 3.36148 11.6214C2.52565 13.2113 2.55295 14.8013 3.45238 16.0914C3.66133 16.4002 3.67947 16.482 3.59771 16.6728C3.54319 16.8 3.44324 16.8999 3.37965 16.8999C2.94355 16.9 1.93514 18.0629 1.44455 19.1258C0.881276 20.3341 0.690471 22.0421 0.990273 23.1687C1.61715 25.5126 3.70675 27.0117 6.35053 27.0026C8.10396 27.0026 9.2941 26.2304 9.30319 25.1038C9.30319 24.6496 9.78473 24.4679 10.1118 24.7949C10.2571 24.9403 10.2662 25.0312 10.1935 25.4945C10.0754 26.2758 9.73016 26.8391 9.12146 27.2479C8.34015 27.7658 7.64969 27.9384 6.35053 27.9384C5.14221 27.9293 4.25182 27.7385 3.26154 27.257C2.86182 27.0662 2.69828 27.0208 2.64377 27.1025C2.48932 27.3297 2.64381 28.9105 2.8891 29.5828C4.23371 33.2895 8.03126 35.0611 11.2837 33.5167C11.8561 33.2441 12.9372 32.272 12.9372 32.0449C12.9372 31.9722 12.7101 31.9268 12.3013 31.9177C11.2202 31.8904 10.1845 31.2726 9.7938 30.4277L9.63024 30.0643L9.87558 29.8281C10.0845 29.6192 10.139 29.601 10.348 29.6918C10.4751 29.7463 10.5751 29.8372 10.5751 29.8826C10.5751 30.0552 11.1475 30.6276 11.4836 30.8002C11.8925 31.0092 12.6284 31.1182 13.0645 31.0364C13.3097 30.991 13.4551 30.882 13.6641 30.5731C13.8276 30.3369 14.0184 30.1643 14.1183 30.1643C14.4363 30.1643 14.5726 30.2733 14.5726 30.5368C14.5725 30.8729 14.2182 31.8359 13.8912 32.3992C13.5005 33.0624 12.5284 33.98 11.8016 34.3616C11.1566 34.6977 9.9301 35.0702 9.46674 35.0702C9.33049 35.0702 9.21239 35.1066 9.21236 35.1611C9.21236 35.2701 10.0845 36.542 10.8931 37.6141C12.3194 39.4947 13.0281 41.1119 13.5369 43.6739C13.655 44.2826 13.8004 44.8913 13.8639 45.0276C13.973 45.2729 13.9821 45.2728 14.7088 45.2093C15.1086 45.182 18.5882 45.1548 22.4403 45.1548H29.445L29.6448 44.4007C29.7448 43.9919 29.8811 43.3831 29.9265 43.047C30.1627 41.5025 31.153 39.3675 32.4703 37.5687C33.3879 36.324 34.2692 35.0066 34.5781 34.4433C34.678 34.2617 34.8052 34.1618 34.9415 34.1617C35.323 34.1527 36.8675 33.5712 37.5126 33.1896C39.475 32.0358 40.5198 30.3096 40.7742 27.7839L40.8287 27.2661L40.3562 27.5841C39.902 27.8839 39.157 28.1655 38.83 28.1655C38.7482 28.1655 38.6028 28.2291 38.5028 28.3018C38.094 28.6107 37.9305 28.4653 37.7397 27.575C37.5853 26.8391 37.34 26.3394 36.8766 25.8216C36.4315 25.331 35.8864 25.0221 35.205 24.8949C34.9506 24.8495 34.6599 24.7677 34.5599 24.7132C34.3328 24.5951 34.251 24.3134 34.3782 24.0772C34.4963 23.8501 34.9324 23.8319 35.6956 24.0318C36.8857 24.3407 38.1758 25.5944 38.4756 26.73C38.621 27.257 38.73 27.2752 39.5204 26.9027C40.547 26.4212 41.6554 25.0402 42.1733 23.6048C42.3822 23.0142 42.4095 22.8144 42.4095 21.7151C42.4095 20.6339 42.3731 20.3977 42.1642 19.7617C41.8553 18.8169 41.401 18.081 40.7196 17.3815C40.1109 16.7637 40.111 16.8 40.4653 15.8551C41.1103 14.1471 40.538 11.894 39.1025 10.4404C38.0396 9.36834 36.6677 8.80507 35.0869 8.80506C34.0966 8.80506 33.4788 8.96858 32.7883 9.441C32.225 9.82257 32.0343 9.8226 31.8344 9.45012C31.689 9.16848 31.8798 8.85052 32.3977 8.50529C33.1426 8.0147 33.7786 7.86932 35.0959 7.8784L36.2134 7.88745L36.1771 7.2788C36.0772 5.38909 33.8331 3.55385 31.6073 3.54475H31.153V4.47147C31.153 5.28912 31.1257 5.47082 30.9168 5.90691C30.5988 6.57012 30.0991 7.05164 29.3814 7.38779C28.7 7.69668 27.7733 7.82387 27.6461 7.62401C27.528 7.43323 27.5462 7.03345 27.6916 6.91535C27.7643 6.85175 28.0186 6.77003 28.2639 6.73369C28.8817 6.62467 29.1361 6.50651 29.554 6.13401C30.5988 5.18916 30.4261 3.32675 29.1815 2.23654C28.3638 1.51881 27.3736 1.12811 26.1652 1.03726Z" fill="#004669"/>
<path d="M18.8034 35.4828C18.8502 35.4152 18.8996 35.3489 18.9503 35.2852C18.9555 35.28 18.9607 35.2735 18.9646 35.2683C19.6133 34.4766 20.5961 33.9709 21.6985 33.9709C22.667 33.9709 23.5432 34.3622 24.1815 34.994C24.2062 35.0174 24.2296 35.0421 24.2543 35.0668C24.2907 35.1045 24.3245 35.1435 24.3596 35.1825C24.7197 35.5881 24.9887 36.0755 25.1343 36.6137C25.5516 36.2627 26.7099 34.8705 26.7099 31.9832C26.7099 27.6295 22.7658 23.3084 20.4895 22.9639C20.6338 23.4241 20.7326 24.0065 20.7326 24.7618C20.7326 27.1251 16.6948 28.6383 16.6948 32.4668C16.6948 33.6316 17.077 35.6284 18.2691 36.6176C18.3796 36.2042 18.5616 35.8221 18.8034 35.4828Z" fill="url(#paint0_linear_2002_2983)"/>
<path d="M26.709 31.9822C26.709 27.6285 22.7648 23.3074 20.4885 22.9629C20.6328 23.4231 20.7316 24.0055 20.7316 24.7608C20.7316 27.1242 16.6938 28.6373 16.6938 32.4658C16.6938 33.6332 17.0773 35.6365 18.2746 36.6232C18.6659 35.097 20.0504 33.9699 21.6975 33.9699C23.3459 33.9699 24.7304 35.097 25.1204 36.6232C25.5299 36.2878 26.709 34.8955 26.709 31.9822Z" fill="url(#paint1_linear_2002_2983)"/>
<path d="M19.0568 35.1684C19.7081 34.443 20.6506 33.9841 21.7023 33.9841C22.78 33.9841 23.7432 34.4651 24.3958 35.2217C24.9678 34.5756 25.363 33.7254 25.363 32.7946C25.363 31.7715 24.9431 30.8473 24.2684 30.1817C24.0058 29.923 23.7042 29.7046 23.374 29.5343C23.374 29.5343 22.0754 28.7907 21.6841 28.1719C21.35 28.7257 20.83 29.1027 20.1228 29.4563C20.1228 29.4563 19.4026 29.9113 19.1101 30.2038C18.4471 30.8668 18.0376 31.7819 18.0376 32.7933C18.0376 33.7345 18.4185 34.5756 19.0022 35.2243C19.0139 35.2087 19.0334 35.1892 19.0568 35.1684Z" fill="#00AEE6"/>
<path d="M20.8096 45.209L18.1304 37.6704H19.7814L20.3105 39.2278H23.0833L23.5708 37.6704H25.2738L22.627 45.209H20.8096ZM21.6923 43.5061H21.7131L22.7414 40.5252H20.7264L21.6923 43.5061Z" fill="#004669"/>
<defs>
<linearGradient id="paint0_linear_2002_2983" x1="21.7019" y1="36.6167" x2="21.7019" y2="22.9626" gradientUnits="userSpaceOnUse">
<stop stop-color="#004669"/>
<stop offset="0.0926" stop-color="#004F76"/>
<stop offset="0.2657" stop-color="#005B8B"/>
<stop offset="0.4568" stop-color="#00649B"/>
<stop offset="0.6779" stop-color="#006AA5"/>
<stop offset="0.9986" stop-color="#006DAA"/>
</linearGradient>
<linearGradient id="paint1_linear_2002_2983" x1="21.7022" y1="36.6234" x2="21.7022" y2="22.9629" gradientUnits="userSpaceOnUse">
<stop stop-color="#004669"/>
<stop offset="0.0926" stop-color="#004F76"/>
<stop offset="0.2657" stop-color="#005B8B"/>
<stop offset="0.4568" stop-color="#00649B"/>
<stop offset="0.6779" stop-color="#006AA5"/>
<stop offset="0.9986" stop-color="#006DAA"/>
</linearGradient>
</defs>
</svg>
