<svg width="233" height="60" viewBox="0 0 233 60" fill="none" xmlns="http://www.w3.org/2000/svg">
<path d="M26.9282 12.5659C25.8016 12.8203 25.2384 13.2836 25.4564 13.7651C25.6018 14.0831 25.947 14.1467 26.3195 13.9105C26.8373 13.5925 27.3915 13.438 28.0638 13.438C29.0814 13.438 29.8264 13.7833 30.2534 14.4556C30.5623 14.9462 30.8348 14.9371 31.3254 14.4102C31.7797 13.9196 32.2703 13.7651 33.0698 13.8469C33.8602 13.9286 34.3962 14.1376 34.8595 14.5373C35.441 15.0552 35.6772 15.6457 35.7226 16.7269C35.7953 18.3168 35.3229 19.3071 34.2054 19.9158C34.0237 20.0157 33.9238 20.1429 33.9238 20.261C33.9238 21.0968 34.7778 20.9605 35.6863 19.9794C36.4494 19.1526 36.8128 17.9443 36.7129 16.4997C36.6311 15.2187 36.0951 14.2103 35.1866 13.6107C34.4689 13.1473 33.9692 12.9747 33.1424 12.9293C32.2884 12.8748 31.6161 13.002 31.1528 13.3199L30.8348 13.538L30.3806 13.2109C30.1353 13.0383 29.6992 12.8112 29.4084 12.7021C28.7634 12.475 27.6096 12.4114 26.9282 12.5659Z" fill="#294971"/>
<path d="M7.74061 14.0658C7.15916 14.8198 6.99563 15.2923 6.98654 16.219C6.98654 17.2001 7.14099 17.7089 7.70427 18.5538L8.09493 19.1535L7.77695 19.208C7.25001 19.2897 6.47777 19.7349 5.97809 20.2255C5.50566 20.707 4.94238 21.6791 4.94238 22.0244C4.94238 22.3151 5.19677 22.624 5.44207 22.624C5.61468 22.624 5.71462 22.4968 6.02352 21.8608C6.65039 20.5707 7.38629 20.0892 9.02162 19.9075C11.1021 19.6804 12.7102 20.28 13.3461 21.5338C13.6369 22.1061 13.7913 22.9329 13.7096 23.4871C13.6187 24.1594 13.646 24.4683 13.8186 24.5955C13.9094 24.6681 14.2547 24.7136 14.6544 24.7136C15.036 24.7136 15.4993 24.759 15.681 24.8044C16.0256 24.8906 16.0808 24.9732 16.3193 25.1776C16.5918 25.382 16.7962 25.3139 16.9325 25.1776C17.171 24.8029 16.8303 24.4962 16.5578 24.2237C16.2511 23.9852 16.108 23.8868 15.2904 23.8232C14.6998 23.7869 14.6817 23.7778 14.6272 23.5052C14.5999 23.3599 14.5726 22.9874 14.5726 22.6694C14.5726 21.3248 13.7277 20.0256 12.4376 19.3988C11.9289 19.1444 10.7841 18.8991 10.1391 18.8991C9.4577 18.8991 9.07613 18.7446 8.71272 18.3449C7.72244 17.2456 7.66793 15.7011 8.57644 14.6563C9.03979 14.1294 8.89442 13.6297 8.28572 13.6297C8.13127 13.6297 7.96774 13.766 7.74061 14.0658Z" fill="#004669"/>
<path d="M30.1189 18.3164C28.9651 18.5981 28.1746 19.1523 27.5387 20.1153C27.0481 20.8784 26.8573 21.7234 26.93 22.9408C27.0117 24.4852 27.5296 25.5573 28.5381 26.3114C29.1831 26.7747 29.7827 27.02 30.7003 27.1744C31.4726 27.3016 32.0813 27.665 32.4538 28.2192C32.8172 28.7462 32.9262 29.2459 32.8808 30.0726C32.8081 31.3082 32.2902 32.0804 31.1637 32.6619C30.6004 32.9526 30.5822 32.9708 30.5822 33.316C30.5822 33.6703 30.5822 33.6703 30.9729 33.6976C31.4635 33.7339 32.1267 33.3887 32.7354 32.7709C34.2344 31.2537 34.2617 28.5917 32.8081 27.229C32.2357 26.6929 31.7724 26.4749 30.5913 26.166C30.0462 26.0206 29.4647 25.8117 29.2921 25.7117C28.856 25.4392 28.32 24.7305 28.0747 24.1128C27.8022 23.4132 27.7749 21.9232 28.0202 21.2055C28.211 20.6513 28.8469 19.9063 29.3921 19.5883C29.8554 19.3158 30.8275 19.0705 31.1182 19.1432C31.418 19.2159 31.7542 18.8888 31.6633 18.6072C31.6361 18.4981 31.5634 18.3528 31.518 18.2892C31.3999 18.1529 30.7367 18.162 30.1189 18.3164Z" fill="#004669"/>
<path d="M24.5662 0.137815C26.1471 -0.143824 27.101 -0.0075105 28.5183 0.673875C29.3995 1.10996 30.0174 1.59147 30.4171 2.17292L30.6805 2.54542H31.3711C32.7338 2.54543 34.3964 3.12684 35.3958 3.93541C35.9772 4.41693 36.7222 5.47084 37.0038 6.22491C37.131 6.57014 37.1946 6.94262 37.1946 7.38779V8.0419L37.6307 8.2145C39.2115 8.85955 40.8105 10.5767 41.3556 12.2211C41.7644 13.4476 41.8098 14.6287 41.501 15.9006L41.3556 16.4911L41.7735 16.9454C42.2914 17.5086 42.9546 18.7987 43.209 19.7617C43.3544 20.325 43.3998 20.7702 43.3998 21.7151C43.4089 22.8325 43.3816 23.0051 43.1544 23.6956C43.0091 24.1044 42.6457 24.8858 42.3459 25.4218L41.8008 26.3939L41.7645 27.2843C41.7009 29.0014 41.292 30.5277 40.6106 31.5543C39.5386 33.1715 37.8941 34.3525 35.9136 34.9248L35.1959 35.1247L34.7144 35.9424C34.0875 36.9872 33.497 37.8685 32.8883 38.6498C32.3341 39.3584 31.5981 40.7212 31.262 41.666C31.1348 42.0204 30.944 42.838 30.835 43.4831C30.726 44.1281 30.5807 44.8004 30.5171 44.973C30.4535 45.1456 30.3535 45.4183 30.299 45.5727C30.1991 45.818 30.2263 45.8998 30.4988 46.3631C30.8895 47.0081 31.0531 47.7713 30.9259 48.4072C30.7805 49.1795 30.5443 49.5338 30.0264 49.7518L29.7902 49.8427L29.8266 50.8511C29.8538 52.0594 29.6903 52.5682 29.1633 52.8862L28.8453 53.077L28.8999 53.7766C28.9726 54.7305 28.7908 55.3392 28.2457 55.9479C27.6734 56.5839 27.2827 56.8019 26.6286 56.8655C26.0835 56.92 26.0744 56.92 25.9563 57.2834C25.7746 57.8285 24.9478 58.8643 24.3936 59.2549C23.5669 59.8364 23.0217 59.9999 21.9315 59.9999C20.3507 60.0089 19.206 59.582 18.252 58.6462C17.8523 58.2555 17.6252 57.9285 17.4344 57.4924L17.1709 56.8746H16.753C15.8627 56.8746 14.9178 56.1387 14.6089 55.2211C14.509 54.9031 14.4726 54.5397 14.4999 53.9128L14.5272 53.0588L14.2637 52.8862C13.7186 52.5319 13.6186 52.223 13.6186 50.9874C13.6186 49.9971 13.6005 49.8699 13.4551 49.8245C13.1462 49.7246 12.6738 49.234 12.5648 48.8979C12.374 48.3618 12.4285 47.2625 12.6556 46.7446C12.7646 46.4994 12.9191 46.2268 13.0008 46.136C13.1371 45.9906 13.1281 45.9179 12.9555 45.3183C12.8464 44.9549 12.7011 44.2917 12.6193 43.8465C12.5375 43.4013 12.374 42.7109 12.2468 42.302C11.8925 41.1846 10.9385 39.313 10.239 38.3954C9.90281 37.9502 9.25778 37.0054 8.80352 36.3058L7.98586 35.0339L7.32264 34.8703C6.08706 34.5705 4.27908 33.4712 3.49776 32.5355C2.23494 31.0364 1.63531 29.2739 1.68982 27.2933L1.71711 26.2849L1.39005 25.8852C0.908542 25.3037 0.526912 24.6496 0.245272 23.9318C0.00906484 23.3413 0 23.2141 0 21.9422C5.67175e-07 20.852 0.0454445 20.4159 0.199891 19.789C0.508786 18.5444 1.19017 17.3542 1.98966 16.6455L2.41666 16.2731L2.15315 15.6553C1.91695 15.0738 1.8988 14.9557 1.90788 13.811C1.90788 12.6935 1.93515 12.53 2.16227 11.9486C2.78006 10.3677 4.12464 8.96863 5.56009 8.40535L6.19609 8.16001L6.15064 7.82391C6.08705 7.33331 6.26878 6.47929 6.58676 5.83424C7.44076 4.0899 9.56666 2.8089 11.8561 2.66354L12.7192 2.60897L13.2007 2.02753C13.9821 1.06451 15.2812 0.337734 16.644 0.092434C17.2073 -0.0165878 18.67 0.0560624 19.2787 0.219595C19.9601 0.401301 20.696 0.873761 21.2138 1.45521L21.659 1.94575L21.8135 1.72776C22.3404 0.946439 23.3761 0.346775 24.5662 0.137815ZM18.2612 56.9639C18.8063 57.9659 19.5217 59.1406 21.7362 59.2097C23.711 59.2714 24.7003 58.2769 25.075 56.9639H18.2612ZM15.4993 53.2406L15.3993 53.5222C15.1449 54.249 15.4266 55.1848 16.0171 55.5754L16.326 55.7844H27.0192L27.3736 55.4664C27.8823 55.003 28.0549 54.5942 27.9913 53.9583C27.9641 53.6676 27.9187 53.3951 27.8823 53.3405C27.846 53.2678 25.9381 53.2406 21.659 53.2406H15.4993ZM28.7908 50.088C28.7363 50.0517 25.5384 50.0244 21.6772 50.0426L14.6543 50.0607L14.5726 50.297C14.4726 50.5514 14.4636 51.5325 14.5635 51.8687L14.618 52.0867L21.6136 52.0686L28.6092 52.0594L28.7455 51.8596C28.8363 51.7233 28.8817 51.4326 28.8817 50.9057C28.8817 50.4969 28.8363 50.1244 28.7908 50.088ZM14.1365 46.3358L13.8185 46.6901C13.4551 47.099 13.3461 47.4715 13.4097 48.1983C13.4823 49.0523 12.6466 48.9796 21.6499 48.9251C27.7095 48.8796 29.6356 48.8433 29.7084 48.7616C29.763 48.698 29.8811 48.4617 29.9628 48.2255C30.1173 47.8167 30.1172 47.7895 29.9174 47.3443C29.8084 47.0899 29.5812 46.7537 29.4086 46.6084L29.0997 46.3358H14.1365ZM26.1652 1.03726C24.5208 0.910068 23.04 1.5642 22.4494 2.67259L22.2495 3.04509V16.2851C22.2495 16.4555 22.0428 16.9325 21.8044 16.9325C21.5863 16.9325 21.2593 16.7962 21.2048 16.2851V11.249L20.7778 11.3217C20.5325 11.3671 19.951 11.4034 19.4785 11.4034C18.7063 11.3944 18.5519 11.3671 18.0068 11.1127C17.3163 10.7857 16.6167 10.1497 16.3442 9.58639C16.2079 9.30476 16.1625 9.0322 16.1625 8.40535C16.1625 7.68762 16.1988 7.52408 16.4169 7.06074C16.6713 6.55197 16.6894 6.53376 16.9983 6.56101C17.5162 6.60644 17.607 6.8427 17.3435 7.45141C17.1891 7.79663 17.1255 8.12372 17.1164 8.50529C17.1164 8.97768 17.1528 9.11396 17.3799 9.42283C17.6797 9.84075 18.0341 10.1133 18.5428 10.3314C18.9608 10.504 20.0782 10.5221 20.7414 10.3586L21.2048 10.2496V7.15157C21.1957 3.60836 21.1411 2.96333 20.805 2.44548C20.487 1.97305 19.8238 1.50061 19.1606 1.27348C17.0892 0.58301 14.4272 1.50061 13.5823 3.19953C13.2189 3.92634 13.2007 4.5169 13.5369 5.13469C13.8094 5.66161 13.7913 5.90694 13.4551 6.07047C13.2371 6.17948 13.1735 6.17039 12.9918 6.0523C12.6284 5.82517 12.3649 5.14374 12.3195 4.34424L12.2741 3.63564H11.8288C10.675 3.63565 9.21231 4.2716 8.28563 5.18919C7.577 5.87966 7.16819 6.65191 7.06825 7.48774C7.00466 8.02374 7.00466 8.02378 7.22269 7.96018C7.3408 7.92384 7.84959 7.86933 8.35836 7.84207C10.0573 7.74214 11.1293 8.09643 12.1832 9.11395C13.2643 10.1497 13.4914 10.7311 13.5641 12.6753C13.6368 14.3288 13.7368 14.6378 14.3909 15.201C14.8906 15.628 15.5629 15.8188 16.5895 15.837C17.4162 15.8551 17.4344 15.8551 17.5162 16.1004C17.5797 16.273 17.5707 16.4275 17.4889 16.591L17.3799 16.8364L16.3624 16.7818C15.2177 16.7273 14.7543 16.591 14.0547 16.1186C13.5278 15.7552 13.1916 15.3191 12.9191 14.6195C12.7646 14.2289 12.7192 13.8927 12.7011 12.9479C12.6829 12.1484 12.6283 11.6305 12.5284 11.358C12.0378 9.97706 10.8931 9.0231 9.48491 8.82323C8.78535 8.73238 7.4044 8.84144 6.67759 9.0504C5.31482 9.44106 3.95202 10.4949 3.36148 11.6214C2.52565 13.2113 2.55295 14.8013 3.45238 16.0914C3.66133 16.4003 3.67947 16.482 3.59771 16.6728C3.54319 16.8 3.44324 16.8999 3.37965 16.8999C2.94355 16.9 1.93514 18.0629 1.44455 19.1258C0.881276 20.3341 0.690471 22.0421 0.990273 23.1687C1.61715 25.5126 3.70675 27.0117 6.35053 27.0026C8.10396 27.0026 9.2941 26.2304 9.30319 25.1038C9.30319 24.6496 9.78473 24.4679 10.1118 24.7949C10.2571 24.9403 10.2662 25.0312 10.1935 25.4945C10.0754 26.2758 9.73016 26.8391 9.12146 27.2479C8.34015 27.7658 7.64969 27.9384 6.35053 27.9384C5.14221 27.9293 4.25182 27.7385 3.26154 27.257C2.86182 27.0662 2.69828 27.0208 2.64377 27.1025C2.48932 27.3297 2.64381 28.9105 2.8891 29.5828C4.23371 33.2895 8.03126 35.0611 11.2837 33.5167C11.8561 33.2441 12.9372 32.272 12.9372 32.0449C12.9372 31.9722 12.7101 31.9268 12.3013 31.9177C11.2202 31.8904 10.1845 31.2726 9.7938 30.4277L9.63024 30.0643L9.87558 29.8281C10.0845 29.6192 10.139 29.601 10.348 29.6918C10.4751 29.7463 10.5751 29.8372 10.5751 29.8826C10.5751 30.0552 11.1475 30.6276 11.4836 30.8002C11.8925 31.0092 12.6284 31.1182 13.0645 31.0364C13.3097 30.991 13.4551 30.882 13.6641 30.5731C13.8276 30.3369 14.0184 30.1643 14.1183 30.1643C14.4363 30.1643 14.5726 30.2733 14.5726 30.5368C14.5725 30.8729 14.2182 31.8359 13.8912 32.3992C13.5005 33.0624 12.5284 33.98 11.8016 34.3616C11.1566 34.6977 9.9301 35.0702 9.46674 35.0702C9.33049 35.0702 9.21239 35.1066 9.21236 35.1611C9.21236 35.2701 10.0845 36.542 10.8931 37.6141C12.3194 39.4947 13.0281 41.1119 13.5369 43.6739C13.655 44.2826 13.8004 44.8913 13.8639 45.0276C13.973 45.2729 13.9821 45.2728 14.7088 45.2093C15.1086 45.182 18.5882 45.1548 22.4403 45.1548H29.445L29.6448 44.4007C29.7448 43.9919 29.8811 43.3831 29.9265 43.047C30.1627 41.5025 31.153 39.3675 32.4703 37.5687C33.3879 36.324 34.2692 35.0066 34.5781 34.4433C34.678 34.2617 34.8052 34.1618 34.9415 34.1617C35.323 34.1527 36.8675 33.5712 37.5126 33.1896C39.475 32.0358 40.5198 30.3096 40.7742 27.7839L40.8287 27.2661L40.3562 27.5841C39.902 27.8839 39.157 28.1655 38.83 28.1655C38.7482 28.1655 38.6028 28.2291 38.5029 28.3018C38.094 28.6107 37.9305 28.4653 37.7398 27.575C37.5853 26.8391 37.34 26.3394 36.8766 25.8216C36.4315 25.331 35.8864 25.0221 35.205 24.8949C34.9506 24.8495 34.6599 24.7677 34.5599 24.7132C34.3328 24.5951 34.251 24.3134 34.3782 24.0772C34.4963 23.8501 34.9324 23.8319 35.6956 24.0318C36.8857 24.3407 38.1758 25.5944 38.4756 26.73C38.621 27.257 38.73 27.2752 39.5204 26.9027C40.547 26.4212 41.6554 25.0402 42.1733 23.6048C42.3822 23.0143 42.4095 22.8144 42.4095 21.7151C42.4095 20.6339 42.3731 20.3977 42.1642 19.7617C41.8553 18.8169 41.401 18.081 40.7196 17.3815C40.1109 16.7637 40.111 16.8 40.4653 15.8551C41.1103 14.1471 40.538 11.894 39.1025 10.4404C38.0396 9.36834 36.6677 8.80506 35.0869 8.80506C34.0966 8.80506 33.4788 8.96858 32.7883 9.441C32.225 9.82257 32.0343 9.8226 31.8344 9.45012C31.689 9.16848 31.8798 8.85052 32.3977 8.50529C33.1426 8.0147 33.7786 7.86932 35.0959 7.8784L36.2134 7.88745L36.1771 7.2788C36.0772 5.38909 33.8331 3.55385 31.6073 3.54475H31.153V4.47147C31.153 5.28912 31.1257 5.47082 30.9168 5.90691C30.5988 6.57012 30.0991 7.05164 29.3814 7.38779C28.7 7.69668 27.7733 7.82387 27.6461 7.62401C27.528 7.43323 27.5462 7.03345 27.6916 6.91535C27.7643 6.85175 28.0186 6.77003 28.2639 6.73369C28.8817 6.62467 29.1361 6.50651 29.554 6.13401C30.5988 5.18916 30.4261 3.32675 29.1815 2.23654C28.3638 1.51881 27.3736 1.12811 26.1652 1.03726Z" fill="#004669"/>
<path d="M18.8029 35.4828C18.8497 35.4152 18.8991 35.3489 18.9498 35.2852C18.955 35.28 18.9602 35.2735 18.9641 35.2683C19.6128 34.4766 20.5956 33.9709 21.698 33.9709C22.6665 33.9709 23.5427 34.3622 24.181 34.994C24.2057 35.0174 24.2291 35.0421 24.2538 35.0668C24.2902 35.1045 24.324 35.1435 24.3591 35.1825C24.7192 35.5881 24.9883 36.0755 25.1339 36.6137C25.5512 36.2627 26.7094 34.8705 26.7094 31.9832C26.7094 27.6295 22.7653 23.3084 20.489 22.9639C20.6333 23.4241 20.7321 24.0065 20.7321 24.7618C20.7321 27.1251 16.6943 28.6383 16.6943 32.4668C16.6943 33.6316 17.0765 35.6284 18.2686 36.6176C18.3791 36.2042 18.5611 35.8221 18.8029 35.4828Z" fill="url(#paint0_linear_2119_1023)"/>
<path d="M26.7094 31.9822C26.7094 27.6285 22.7653 23.3074 20.489 22.9629C20.6333 23.4231 20.7321 24.0055 20.7321 24.7608C20.7321 27.1242 16.6943 28.6373 16.6943 32.4658C16.6943 33.6332 17.0778 35.6365 18.2751 36.6232C18.6664 35.097 20.0509 33.9699 21.698 33.9699C23.3464 33.9699 24.7309 35.097 25.1209 36.6232C25.5304 36.2878 26.7094 34.8955 26.7094 31.9822Z" fill="url(#paint1_linear_2119_1023)"/>
<path d="M19.0563 35.1684C19.7076 34.443 20.6501 33.9841 21.7018 33.9841C22.7795 33.9841 23.7428 34.4651 24.3954 35.2217C24.9673 34.5756 25.3625 33.7254 25.3625 32.7946C25.3625 31.7715 24.9426 30.8473 24.268 30.1817C24.0054 29.923 23.7038 29.7046 23.3736 29.5343C23.3736 29.5343 22.0749 28.7907 21.6836 28.1719C21.3495 28.7257 20.8295 29.1027 20.1223 29.4563C20.1223 29.4563 19.4021 29.9113 19.1096 30.2038C18.4466 30.8667 18.0371 31.7819 18.0371 32.7933C18.0371 33.7345 18.418 34.5756 19.0017 35.2243C19.0134 35.2087 19.0329 35.1892 19.0563 35.1684Z" fill="#00AEE6"/>
<path d="M20.8101 45.2095L18.1309 37.6709H19.7818L20.3109 39.2283H23.0838L23.5713 37.6709H25.2743L22.6275 45.2095H20.8101ZM21.6928 43.5065H21.7136L22.7419 40.5257H20.7269L21.6928 43.5065Z" fill="#004669"/>
<path d="M69.3014 19.36V33H68.4414V20.82H68.3814L60.8814 33H60.0014V19.36H60.8614V31.48H60.9414L68.4414 19.34L69.3014 19.36ZM82.6014 33V26.16H75.4014V33H74.5014V19.34H75.4014V25.4H82.6014V19.34H83.5014V33H82.6014ZM96.8084 33V26.16H89.6084V33H88.7084V19.34H89.6084V25.4H96.8084V19.34H97.7084V33H96.8084ZM113.375 26.24C113.375 27.2267 113.262 28.14 113.035 28.98C112.822 29.8067 112.489 30.5267 112.035 31.14C111.595 31.7533 111.042 32.24 110.375 32.6C109.722 32.9467 108.955 33.1267 108.075 33.14C107.049 33.14 106.182 32.9867 105.475 32.68C104.769 32.36 104.195 31.9067 103.755 31.32C103.315 30.72 102.995 30 102.795 29.16C102.609 28.32 102.515 27.3667 102.515 26.3C102.515 25.3667 102.609 24.4733 102.795 23.62C102.982 22.7533 103.289 21.9933 103.715 21.34C104.142 20.6733 104.709 20.14 105.415 19.74C106.135 19.34 107.022 19.14 108.075 19.14C109.142 19.14 110.015 19.34 110.695 19.74C111.389 20.14 111.929 20.6733 112.315 21.34C112.715 21.9933 112.989 22.7467 113.135 23.6C113.295 24.4533 113.375 25.3333 113.375 26.24ZM112.455 26.3C112.455 25.5933 112.402 24.86 112.295 24.1C112.189 23.34 111.982 22.6467 111.675 22.02C111.369 21.38 110.922 20.86 110.335 20.46C109.762 20.0467 109.009 19.84 108.075 19.84C107.129 19.84 106.355 20.0267 105.755 20.4C105.155 20.7733 104.682 21.2667 104.335 21.88C103.989 22.4933 103.749 23.1867 103.615 23.96C103.482 24.7333 103.415 25.5267 103.415 26.34C103.415 28.3267 103.775 29.84 104.495 30.88C105.215 31.92 106.375 32.44 107.975 32.44C108.735 32.44 109.395 32.28 109.955 31.96C110.529 31.64 110.995 31.2 111.355 30.64C111.729 30.08 112.002 29.4267 112.175 28.68C112.362 27.9333 112.455 27.14 112.455 26.3ZM124.417 25.92C124.897 26.0667 125.29 26.2733 125.597 26.54C125.904 26.8067 126.144 27.1 126.317 27.42C126.504 27.74 126.63 28.0733 126.697 28.42C126.777 28.7667 126.817 29.0867 126.817 29.38C126.817 29.9267 126.724 30.4267 126.537 30.88C126.35 31.32 126.09 31.7 125.757 32.02C125.437 32.3267 125.057 32.5667 124.617 32.74C124.177 32.9133 123.71 33 123.217 33H118.177V19.36H122.517C123.17 19.36 123.737 19.4467 124.217 19.62C124.697 19.78 125.097 20.0133 125.417 20.32C125.737 20.6133 125.977 20.9667 126.137 21.38C126.297 21.7933 126.377 22.2467 126.377 22.74C126.377 22.9667 126.357 23.22 126.317 23.5C126.277 23.7667 126.184 24.04 126.037 24.32C125.904 24.6 125.71 24.8733 125.457 25.14C125.204 25.3933 124.857 25.62 124.417 25.82V25.92ZM119.057 26.28V32.28H122.917C123.45 32.28 123.91 32.2 124.297 32.04C124.684 31.8667 124.997 31.6467 125.237 31.38C125.477 31.1 125.65 30.78 125.757 30.42C125.877 30.0467 125.937 29.66 125.937 29.26C125.937 28.8733 125.864 28.5 125.717 28.14C125.57 27.78 125.357 27.4667 125.077 27.2C124.81 26.92 124.49 26.7 124.117 26.54C123.744 26.3667 123.33 26.28 122.877 26.28H119.057ZM119.057 20.08V25.54H122.557C123.437 25.54 124.144 25.2933 124.677 24.8C125.224 24.3067 125.497 23.6533 125.497 22.84C125.497 22.44 125.437 22.0733 125.317 21.74C125.197 21.4067 125.01 21.12 124.757 20.88C124.504 20.6267 124.177 20.4333 123.777 20.3C123.39 20.1533 122.924 20.08 122.377 20.08H119.057ZM139.403 33C139.19 32.36 138.983 31.7267 138.783 31.1C138.583 30.46 138.377 29.82 138.163 29.18H132.423C132.21 29.82 132.003 30.46 131.803 31.1C131.617 31.7267 131.423 32.36 131.223 33H130.323L134.743 19.36H135.883L140.303 33H139.403ZM135.263 20.16C134.997 21.08 134.717 21.98 134.423 22.86L132.663 28.46H137.943L136.163 22.86C136.017 22.4067 135.877 21.96 135.743 21.52C135.61 21.08 135.47 20.6267 135.323 20.16H135.263ZM147.447 33V20.08H143.047V19.34H152.667V20.08H148.307L148.287 33H147.447ZM165.958 19.36V33H165.098V20.82H165.038L157.538 33H156.658V19.36H157.518V31.48H157.598L165.098 19.34L165.958 19.36ZM171.158 33V19.34H172.038V25.36H174.898C175.151 25.36 175.404 25.3267 175.658 25.26C175.911 25.1933 176.151 25.08 176.378 24.92C176.618 24.76 176.838 24.54 177.038 24.26C177.238 23.98 177.411 23.62 177.558 23.18L178.798 19.36H179.618L178.478 23.04C178.251 23.7067 177.984 24.28 177.678 24.76C177.371 25.2267 176.958 25.5333 176.438 25.68C177.118 25.8267 177.618 26.14 177.938 26.62C178.258 27.0867 178.511 27.6533 178.698 28.32L180.078 33H179.198L177.818 28.4C177.671 27.9467 177.504 27.5733 177.318 27.28C177.131 26.9733 176.924 26.74 176.698 26.58C176.471 26.4067 176.224 26.2867 175.958 26.22C175.704 26.1533 175.431 26.12 175.138 26.12H172.038V33H171.158ZM191.896 33C191.682 32.36 191.476 31.7267 191.276 31.1C191.076 30.46 190.869 29.82 190.656 29.18H184.916C184.702 29.82 184.496 30.46 184.296 31.1C184.109 31.7267 183.916 32.36 183.716 33H182.816L187.236 19.36H188.376L192.796 33H191.896ZM187.756 20.16C187.489 21.08 187.209 21.98 186.916 22.86L185.156 28.46H190.436L188.656 22.86C188.509 22.4067 188.369 21.96 188.236 21.52C188.102 21.08 187.962 20.6267 187.816 20.16H187.756Z" fill="black"/>
<path d="M199.755 32.6796C199.874 32.5047 200.001 32.3299 200.135 32.1626C200.15 32.1474 200.157 32.1322 200.172 32.117C201.825 30.0494 204.342 28.7267 207.157 28.7267C209.637 28.7267 211.871 29.7453 213.501 31.3949C213.561 31.4557 213.628 31.5165 213.688 31.5849C213.777 31.6837 213.866 31.7826 213.956 31.889C214.879 32.9456 215.564 34.2151 215.936 35.6214C217.001 34.7016 219.965 31.0756 219.965 23.5348C219.965 12.1703 209.882 0.896996 204.067 0C204.431 1.20106 204.692 2.7214 204.692 4.69023C204.692 10.8552 194.371 14.808 194.371 24.7966C194.371 27.8373 195.347 33.0444 198.392 35.629C198.675 34.5648 199.137 33.5613 199.755 32.6796Z" fill="url(#paint2_linear_2119_1023)"/>
<path d="M219.965 23.5426C219.965 12.1781 209.882 0.904809 204.067 0.0078125C204.431 1.20888 204.692 2.72921 204.692 4.69804C204.692 10.863 194.371 14.8159 194.371 24.8044C194.371 27.8527 195.354 33.075 198.415 35.652C199.412 31.6687 202.957 28.7269 207.164 28.7269C211.379 28.7269 214.916 31.6687 215.914 35.652C216.949 34.7778 219.965 31.1442 219.965 23.5426Z" fill="url(#paint3_linear_2119_1023)"/>
<path d="M65.5076 39.0342L69.1192 55.1269H69.1713L72.7234 39.0342H78.7551V59.4599H74.868V42.3865H74.8382L71.0926 59.4599H66.982L63.3406 42.3865H63.2885V59.4599H59.4014V39.0342H65.5076Z" fill="#004669"/>
<path d="M91.4067 38.502C94.0502 38.502 100.998 39.6802 100.998 49.2507C100.998 58.8136 94.0502 59.9995 91.4067 59.9995C88.7631 59.9995 81.8154 58.8136 81.8154 49.2507C81.8154 39.6802 88.7631 38.502 91.4067 38.502ZM91.4067 56.3963C93.663 56.3963 96.8353 54.9596 96.8353 49.2507C96.8353 43.5419 93.663 42.1051 91.4067 42.1051C89.1429 42.1051 85.9781 43.5419 85.9781 49.2507C85.9781 54.9596 89.1429 56.3963 91.4067 56.3963Z" fill="#004669"/>
<path d="M116.957 45.7313C116.629 44.4923 115.966 42.1054 112.518 42.1054C110.508 42.1054 107.477 43.5649 107.477 49.3345C107.477 52.9909 108.996 56.3965 112.518 56.3965C114.834 56.3965 116.458 54.9598 116.957 52.4588H121.119C120.293 56.9058 117.456 59.9997 112.437 59.9997C107.12 59.9997 103.314 56.3129 103.314 49.2813C103.314 42.1358 107.336 38.5098 112.496 38.5098C118.476 38.5098 120.903 42.7287 121.119 45.739H116.957V45.7313Z" fill="#004669"/>
<path d="M132.826 38.502C135.469 38.502 142.417 39.6802 142.417 49.2507C142.417 58.8136 135.469 59.9995 132.826 59.9995C130.175 59.9995 123.234 58.8136 123.234 49.2507C123.234 39.6802 130.182 38.502 132.826 38.502ZM132.826 56.3963C135.082 56.3963 138.254 54.9596 138.254 49.2507C138.254 43.5419 135.089 42.1051 132.826 42.1051C130.562 42.1051 127.397 43.5419 127.397 49.2507C127.397 54.9596 130.569 56.3963 132.826 56.3963Z" fill="#004669"/>
<path d="M160.138 39.0342V42.5538H149.579V46.7727H154.792C158.649 46.7727 161.628 49.1672 161.628 53.2113C161.628 57.2326 158.731 59.4599 154.74 59.4599H145.424V39.0342H160.138ZM149.579 55.9479H154.293C156.303 55.9479 157.465 54.686 157.465 52.9908C157.465 51.1892 156.169 50.2922 154.293 50.2922H149.579V55.9479Z" fill="#004669"/>
<path d="M196.754 39.0342V42.5538H188.027V59.4599H183.864V39.0342H196.754Z" fill="#004669"/>
<path d="M204.796 59.4599L197.685 39.0342H202.071L203.471 43.2531H210.828L212.124 39.0342H216.644L209.621 59.4599H204.796ZM207.134 54.8456H207.194L209.919 46.7727H204.573L207.134 54.8456Z" fill="#004669"/>
<path d="M174.429 39.0342H169.612L162.5 59.4599H166.879L171.95 43.6484H172.009L176.939 59.4599H181.459L174.429 39.0342Z" fill="#004669"/>
<path d="M216.227 45.1156C216.443 41.7405 218.901 38.5098 224.024 38.5098C229.564 38.5098 231.657 41.6341 231.657 43.907C231.657 46.4991 230.249 48.0423 228.209 48.6352C230.383 49.0305 232.401 50.8321 232.401 54.0096C232.401 57.1567 229.922 59.9997 224.299 59.9997C217.463 59.9997 215.922 56.4801 215.922 53.1582H219.839C219.839 54.9598 220.613 56.4801 224.165 56.4801C226.675 56.4801 228.246 55.3551 228.246 53.5535C228.246 51.501 226.593 50.4596 224.582 50.4596H222.654V47.0236H224.471C226.451 47.0236 227.665 46.0354 227.665 44.3783C227.665 42.8275 226.317 42.0141 224.106 42.0141C221.321 42.0141 220.3 43.1696 220.137 45.108H216.227V45.1156Z" fill="#004669"/>
<path d="M200.403 31.858C202.071 29.9652 204.476 28.7718 207.165 28.7718C209.92 28.7718 212.385 30.026 214.053 32.0025C215.52 30.3149 216.525 28.0952 216.525 25.6703C216.525 23.0021 215.453 20.5848 213.725 18.8516C213.055 18.175 212.281 17.6049 211.439 17.164C211.439 17.164 208.118 15.2256 207.12 13.6064C206.264 15.0508 204.938 16.0314 203.129 16.9588C203.129 16.9588 201.289 18.1446 200.537 18.9124C198.847 20.6456 197.797 23.0325 197.797 25.6703C197.797 28.1256 198.772 30.3225 200.262 32.0177C200.291 31.9645 200.344 31.9113 200.403 31.858Z" fill="#00AEE6"/>
<defs>
<linearGradient id="paint0_linear_2119_1023" x1="21.7014" y1="36.6167" x2="21.7014" y2="22.9626" gradientUnits="userSpaceOnUse">
<stop stop-color="#004669"/>
<stop offset="0.0926" stop-color="#004F76"/>
<stop offset="0.2657" stop-color="#005B8B"/>
<stop offset="0.4568" stop-color="#00649B"/>
<stop offset="0.6779" stop-color="#006AA5"/>
<stop offset="0.9986" stop-color="#006DAA"/>
</linearGradient>
<linearGradient id="paint1_linear_2119_1023" x1="21.7027" y1="36.6234" x2="21.7027" y2="22.9629" gradientUnits="userSpaceOnUse">
<stop stop-color="#004669"/>
<stop offset="0.0926" stop-color="#004F76"/>
<stop offset="0.2657" stop-color="#005B8B"/>
<stop offset="0.4568" stop-color="#00649B"/>
<stop offset="0.6779" stop-color="#006AA5"/>
<stop offset="0.9986" stop-color="#006DAA"/>
</linearGradient>
<linearGradient id="paint2_linear_2119_1023" x1="207.165" y1="35.6387" x2="207.165" y2="0.00790463" gradientUnits="userSpaceOnUse">
<stop stop-color="#004669"/>
<stop offset="0.0926" stop-color="#004F76"/>
<stop offset="0.2657" stop-color="#005B8B"/>
<stop offset="0.4568" stop-color="#00649B"/>
<stop offset="0.6779" stop-color="#006AA5"/>
<stop offset="0.9986" stop-color="#006DAA"/>
</linearGradient>
<linearGradient id="paint3_linear_2119_1023" x1="207.165" y1="35.6557" x2="207.165" y2="0.00811847" gradientUnits="userSpaceOnUse">
<stop stop-color="#004669"/>
<stop offset="0.0926" stop-color="#004F76"/>
<stop offset="0.2657" stop-color="#005B8B"/>
<stop offset="0.4568" stop-color="#00649B"/>
<stop offset="0.6779" stop-color="#006AA5"/>
<stop offset="0.9986" stop-color="#006DAA"/>
</linearGradient>
</defs>
</svg>
