<svg width="173" height="60" viewBox="0 0 173 60" fill="none" xmlns="http://www.w3.org/2000/svg">
<path d="M140.354 32.6796C140.473 32.5047 140.6 32.3299 140.734 32.1626C140.749 32.1474 140.756 32.1322 140.771 32.117C142.424 30.0494 144.941 28.7267 147.756 28.7267C150.236 28.7267 152.47 29.7453 154.1 31.3949C154.16 31.4557 154.227 31.5165 154.287 31.5849C154.376 31.6837 154.465 31.7826 154.555 31.889C155.478 32.9456 156.163 34.2151 156.535 35.6214C157.6 34.7016 160.564 31.0756 160.564 23.5348C160.564 12.1703 150.481 0.896996 144.666 0C145.03 1.20106 145.291 2.7214 145.291 4.69023C145.291 10.8552 134.97 14.808 134.97 24.7966C134.97 27.8373 135.946 33.0444 138.991 35.629C139.274 34.5648 139.736 33.5613 140.354 32.6796Z" fill="url(#paint0_linear_2001_1361)"/>
<path d="M160.564 23.5426C160.564 12.1781 150.481 0.904809 144.666 0.0078125C145.03 1.20888 145.291 2.72921 145.291 4.69804C145.291 10.863 134.97 14.8159 134.97 24.8044C134.97 27.8527 135.953 33.075 139.014 35.652C140.011 31.6687 143.556 28.7269 147.763 28.7269C151.978 28.7269 155.515 31.6687 156.513 35.652C157.548 34.7778 160.564 31.1442 160.564 23.5426Z" fill="url(#paint1_linear_2001_1361)"/>
<path d="M6.10622 39.0347L9.71783 55.1274H9.76996L13.322 39.0347H19.3538V59.4603H15.4666V42.387H15.4368L11.6912 59.4603H7.58065L3.93926 42.387H3.88713V59.4603H0V39.0347H6.10622Z" fill="#004669"/>
<path d="M32.0055 38.5024C34.6491 38.5024 41.5968 39.6807 41.5968 49.2512C41.5968 58.8141 34.6491 59.9999 32.0055 59.9999C29.362 59.9999 22.4143 58.8141 22.4143 49.2512C22.4143 39.6807 29.362 38.5024 32.0055 38.5024ZM32.0055 56.3968C34.2619 56.3968 37.4341 54.96 37.4341 49.2512C37.4341 43.5423 34.2619 42.1056 32.0055 42.1056C29.7418 42.1056 26.577 43.5423 26.577 49.2512C26.577 54.96 29.7418 56.3968 32.0055 56.3968Z" fill="#004669"/>
<path d="M57.5548 45.7318C57.2271 44.4928 56.5644 42.1058 53.1166 42.1058C51.106 42.1058 48.0753 43.5654 48.0753 49.335C48.0753 52.9914 49.5944 56.397 53.1166 56.397C55.4325 56.397 57.0559 54.9603 57.5548 52.4593H61.7174C60.8909 56.9063 58.0537 60.0002 53.0347 60.0002C47.7178 60.0002 43.9126 56.3134 43.9126 49.2818C43.9126 42.1363 47.9338 38.5103 53.0943 38.5103C59.0739 38.5103 61.5015 42.7292 61.7174 45.7394H57.5548V45.7318Z" fill="#004669"/>
<path d="M73.424 38.5024C76.0675 38.5024 83.0152 39.6807 83.0152 49.2512C83.0152 58.8141 76.0675 59.9999 73.424 59.9999C70.773 59.9999 63.8328 58.8141 63.8328 49.2512C63.8328 39.6807 70.7805 38.5024 73.424 38.5024ZM73.424 56.3968C75.6803 56.3968 78.8526 54.96 78.8526 49.2512C78.8526 43.5423 75.6878 42.1056 73.424 42.1056C71.1602 42.1056 67.9954 43.5423 67.9954 49.2512C67.9954 54.96 71.1677 56.3968 73.424 56.3968Z" fill="#004669"/>
<path d="M100.737 39.0347V42.5542H90.178V46.7732H95.3907C99.248 46.7732 102.227 49.1677 102.227 53.2118C102.227 57.2331 99.3299 59.4603 95.3385 59.4603H86.0228V39.0347H100.737ZM90.178 55.9484H94.8917C96.9023 55.9484 98.064 54.6865 98.064 52.9913C98.064 51.1897 96.7683 50.2927 94.8917 50.2927H90.178V55.9484Z" fill="#004669"/>
<path d="M137.353 39.0347V42.5542H128.625V59.4603H124.463V39.0347H137.353Z" fill="#004669"/>
<path d="M145.395 59.4603L138.284 39.0347H142.67L144.07 43.2536H151.427L152.723 39.0347H157.243L150.22 59.4603H145.395ZM147.733 54.8461H147.793L150.518 46.7732H145.172L147.733 54.8461Z" fill="#004669"/>
<path d="M115.028 39.0347H110.21L103.099 59.4603H107.477L112.548 43.6489H112.608L117.537 59.4603H122.058L115.028 39.0347Z" fill="#004669"/>
<path d="M156.826 45.1161C157.042 41.741 159.499 38.5103 164.623 38.5103C170.163 38.5103 172.255 41.6345 172.255 43.9074C172.255 46.4996 170.848 48.0427 168.808 48.6357C170.982 49.031 173 50.8326 173 54.0101C173 57.1571 170.52 60.0002 164.898 60.0002C158.062 60.0002 156.521 56.4806 156.521 53.1587H160.438C160.438 54.9603 161.212 56.4806 164.764 56.4806C167.274 56.4806 168.845 55.3555 168.845 53.554C168.845 51.5015 167.192 50.4601 165.181 50.4601H163.252V47.0241H165.069C167.05 47.0241 168.264 46.0359 168.264 44.3787C168.264 42.828 166.916 42.0146 164.704 42.0146C161.919 42.0146 160.899 43.1701 160.735 45.1085H156.826V45.1161Z" fill="#004669"/>
<path d="M141.002 31.8585C142.67 29.9657 145.075 28.7723 147.763 28.7723C150.518 28.7723 152.983 30.0265 154.651 32.003C156.118 30.3154 157.124 28.0957 157.124 25.6708C157.124 23.0026 156.051 20.5853 154.324 18.8521C153.653 18.1755 152.879 17.6054 152.038 17.1645C152.038 17.1645 148.716 15.2261 147.719 13.6069C146.862 15.0512 145.537 16.0319 143.727 16.9593C143.727 16.9593 141.888 18.1451 141.136 18.9129C139.445 20.6461 138.395 23.033 138.395 25.6708C138.395 28.1261 139.371 30.323 140.86 32.0182C140.89 31.965 140.942 31.9117 141.002 31.8585Z" fill="#00AEE6"/>
<defs>
<linearGradient id="paint0_linear_2001_1361" x1="147.764" y1="35.6387" x2="147.764" y2="0.00790463" gradientUnits="userSpaceOnUse">
<stop stop-color="#004669"/>
<stop offset="0.0926" stop-color="#004F76"/>
<stop offset="0.2657" stop-color="#005B8B"/>
<stop offset="0.4568" stop-color="#00649B"/>
<stop offset="0.6779" stop-color="#006AA5"/>
<stop offset="0.9986" stop-color="#006DAA"/>
</linearGradient>
<linearGradient id="paint1_linear_2001_1361" x1="147.764" y1="35.6557" x2="147.764" y2="0.00811847" gradientUnits="userSpaceOnUse">
<stop stop-color="#004669"/>
<stop offset="0.0926" stop-color="#004F76"/>
<stop offset="0.2657" stop-color="#005B8B"/>
<stop offset="0.4568" stop-color="#00649B"/>
<stop offset="0.6779" stop-color="#006AA5"/>
<stop offset="0.9986" stop-color="#006DAA"/>
</linearGradient>
</defs>
</svg>
