<svg width="25" height="25" viewBox="0 0 25 25" fill="none" xmlns="http://www.w3.org/2000/svg">
<path d="M5.01186 21.8898C6.40076 19.1656 9.23251 17.3 12.5 17.3C15.7423 17.3 18.5554 19.137 19.9557 21.8268M15.3 10.6333C15.3 12.2534 13.9867 13.5667 12.3667 13.5667C10.7467 13.5667 9.43333 12.2534 9.43333 10.6333C9.43333 9.0133 10.7467 7.7 12.3667 7.7C13.9867 7.7 15.3 9.0133 15.3 10.6333ZM12.5 24.5C5.87258 24.5 0.5 19.1274 0.5 12.5C0.5 5.87258 5.87258 0.5 12.5 0.5C19.1274 0.5 24.5 5.87258 24.5 12.5C24.5 19.1274 19.1274 24.5 12.5 24.5Z" stroke="#004669" stroke-linecap="round" stroke-linejoin="round"/>
</svg>
