<svg width="13" height="12" viewBox="0 0 13 12" fill="none" xmlns="http://www.w3.org/2000/svg">
<path d="M2.87563 0.448197C2.2781 1.22312 2.11004 1.70862 2.1007 2.66094C2.1007 3.66927 2.25942 4.19211 2.83828 5.0604L3.23975 5.67661L2.91297 5.73263C2.37146 5.81665 1.57786 6.27414 1.06436 6.77831C0.57886 7.27314 0 8.27214 0 8.62693C0 8.9257 0.261421 9.24314 0.513505 9.24314C0.690898 9.24314 0.793599 9.11242 1.11104 8.45887C1.75525 7.1331 2.51151 6.63826 4.19207 6.45153C6.33012 6.21812 7.98267 6.83433 8.63622 8.12276C8.93499 8.71096 9.09371 9.56058 9.00968 10.1301C8.91632 10.821 8.94433 11.1384 9.12172 11.2691C9.21508 11.3438 9.56987 11.3905 9.98067 11.3905C10.3728 11.3905 10.849 11.4372 11.0357 11.4839C11.3898 11.5724 11.4465 11.6573 11.6916 11.8674C11.9717 12.0775 12.1817 12.0075 12.3218 11.8674C12.5669 11.4823 12.2168 11.1672 11.9367 10.8871C11.6216 10.642 11.4745 10.5409 10.6342 10.4755C10.0274 10.4382 10.0087 10.4289 9.95266 10.1488C9.92465 9.99939 9.89664 9.61659 9.89664 9.28982C9.89664 7.90802 9.02835 6.57291 7.70258 5.92869C7.17973 5.66727 6.00334 5.41519 5.34045 5.41519C4.64022 5.41519 4.24809 5.25647 3.87463 4.84566C2.85696 3.71595 2.80094 2.12876 3.73458 1.05507C4.21074 0.513552 4.06136 4.70426e-05 3.43582 4.70426e-05C3.2771 4.70426e-05 3.10904 0.140095 2.87563 0.448197Z" fill="#004669"/>
</svg>
