<svg width="19" height="19" viewBox="0 0 19 19" fill="none" xmlns="http://www.w3.org/2000/svg">
<path d="M2.64413 18.5164C4.33637 16.5961 6.77653 15.3854 9.50376 15.3854C12.299 15.3854 14.7996 16.6578 16.4918 18.6629C17.9801 16.9509 19 14.699 19 12.2389C19 9.53198 17.9121 7.07958 16.1594 5.32125C15.4795 4.63489 14.6938 4.05649 13.8401 3.6092C13.8401 3.6092 10.4708 1.64265 9.45843 0C8.58965 1.46527 7.24492 2.46012 5.40914 3.40098C5.40914 3.40098 3.54314 4.60404 2.78012 5.38295C1.06521 7.14127 0 9.56283 0 12.2389C0 14.7298 0.989658 16.9586 2.50059 18.6784C2.53081 18.6244 2.58369 18.5704 2.64413 18.5164Z" fill="#00AEE6"/>
</svg>
