<svg width="11" height="14" viewBox="0 0 11 14" fill="none" xmlns="http://www.w3.org/2000/svg">
<path d="M2.16204 12.8363C2.21003 12.767 2.26068 12.699 2.31267 12.6337C2.318 12.6284 2.32333 12.6217 2.32733 12.6164C2.99247 11.8046 4.00018 11.2861 5.13052 11.2861C6.12357 11.2861 7.02198 11.6873 7.67645 12.3351C7.70178 12.3591 7.72577 12.3844 7.7511 12.4098C7.78842 12.4484 7.82308 12.4884 7.85907 12.5284C8.2283 12.9443 8.50422 13.4441 8.65351 13.996C9.08138 13.6361 10.269 12.2085 10.269 9.248C10.269 4.78396 6.22487 0.353232 3.89088 0C4.03884 0.471864 4.14014 1.06903 4.14014 1.84347C4.14014 4.26677 0 5.81832 0 9.74386C0 10.9382 0.391887 12.9856 1.6142 14C1.7275 13.5761 1.91412 13.1842 2.16204 12.8363Z" fill="url(#paint0_linear_0_10)"/>
<defs>
<linearGradient id="paint0_linear_0_10" x1="5.13405" y1="13.999" x2="5.13405" y2="-0.00134602" gradientUnits="userSpaceOnUse">
<stop stop-color="#004669"/>
<stop offset="0.0926" stop-color="#004F76"/>
<stop offset="0.2657" stop-color="#005B8B"/>
<stop offset="0.4568" stop-color="#00649B"/>
<stop offset="0.6779" stop-color="#006AA5"/>
<stop offset="0.9986" stop-color="#006DAA"/>
</linearGradient>
</defs>
</svg>
