<svg width="7" height="16" viewBox="0 0 7 16" fill="none" xmlns="http://www.w3.org/2000/svg">
<path d="M3.22029 0.123702C2.06055 0.406788 1.26608 0.963828 0.626851 1.9318C0.133734 2.69887 -0.0580343 3.54813 0.0150202 4.77179C0.0972065 6.3242 0.61772 7.40175 1.63135 8.15969C2.27971 8.62542 2.88241 8.87197 3.80472 9.02721C4.58092 9.15506 5.19276 9.52033 5.56716 10.0774C5.93243 10.607 6.04201 11.1093 5.99636 11.9403C5.9233 13.1822 5.40279 13.9584 4.27044 14.5428C3.70427 14.835 3.68601 14.8533 3.68601 15.2003C3.68601 15.5565 3.68601 15.5565 4.07868 15.5839C4.57179 15.6204 5.23842 15.2734 5.85025 14.6524C7.35699 13.1274 7.38439 10.4518 5.9233 9.08201C5.348 8.54323 4.88227 8.32407 3.69514 8.01358C3.14723 7.86748 2.56279 7.65744 2.38929 7.55699C1.95096 7.28304 1.41219 6.57076 1.16563 5.9498C0.891674 5.24665 0.864278 3.74903 1.11084 3.02762C1.30261 2.47058 1.94183 1.72177 2.48974 1.40215C2.95546 1.1282 3.93257 0.881642 4.22478 0.954697C4.52613 1.02775 4.86401 0.699005 4.77269 0.41592C4.7453 0.306338 4.67224 0.160228 4.62658 0.0963058C4.50787 -0.0406713 3.84125 -0.0315389 3.22029 0.123702Z" fill="#004669"/>
</svg>
