<svg width="17" height="22" viewBox="0 0 17 22" fill="none" xmlns="http://www.w3.org/2000/svg">
<path d="M0.312562 6.76266C0.53364 3.3074 3.04936 0 8.29424 0C13.966 0 16.1082 3.19845 16.1082 5.52531C16.1082 8.17901 14.6674 9.75878 12.5786 10.3658C14.8046 10.7705 16.8706 12.6148 16.8706 15.8677C16.8706 19.0895 14.332 22 8.57631 22C1.57804 22 0 18.3969 0 14.9961H4.00991C4.00991 16.8405 4.80274 18.3969 8.43909 18.3969C11.0082 18.3969 12.6167 17.2452 12.6167 15.4008C12.6167 13.2996 10.9243 12.2335 8.866 12.2335H6.89155V8.71598H8.75165C10.7795 8.71598 12.0221 7.70429 12.0221 6.00779C12.0221 4.42024 10.6422 3.58755 8.3781 3.58755C5.52696 3.58755 4.48255 4.77044 4.31484 6.75488H0.312562V6.76266Z" fill="#004669"/>
</svg>
