<svg width="8" height="8" viewBox="0 0 8 8" fill="none" xmlns="http://www.w3.org/2000/svg">
<path d="M1.11304 7.64081C1.82431 6.84862 2.85359 6.34747 4.00213 6.34747C5.17906 6.34747 6.23105 6.87275 6.94374 7.69902C7.56841 6.99343 7.99999 6.06495 7.99999 5.04844C7.99999 3.93114 7.54143 2.92174 6.80461 2.19485C6.51783 1.91233 6.18846 1.67382 5.82786 1.48784C5.82786 1.48784 4.40958 0.675776 3.98225 0C3.61739 0.604791 3.04951 1.0165 2.2772 1.40266C2.2772 1.40266 1.49068 1.89955 1.17125 2.21899C0.447205 2.94303 0 3.9425 0 5.04702C0 6.07488 0.415971 6.99343 1.05341 7.70186C1.06619 7.68482 1.08749 7.66352 1.11304 7.64081Z" fill="#00AEE6"/>
</svg>
