<svg width="26" height="36" viewBox="0 0 26 36" fill="none" xmlns="http://www.w3.org/2000/svg">
<path d="M5.43996 33.0198C5.56034 32.8432 5.68825 32.6665 5.82368 32.4975C5.83873 32.4822 5.84626 32.4668 5.86131 32.4514C7.53167 30.3623 10.0748 29.0258 12.919 29.0258C15.4245 29.0258 17.6817 30.055 19.3295 31.7218C19.3897 31.7832 19.4574 31.8447 19.5176 31.9138C19.6079 32.0136 19.6982 32.1135 19.7885 32.221C20.7215 33.2886 21.4137 34.5713 21.7899 35.9923C22.8659 35.0629 25.8605 31.3992 25.8605 23.7798C25.8605 12.297 15.6728 0.906336 9.79643 0C10.1651 1.21357 10.4285 2.74974 10.4285 4.73907C10.4285 10.9682 0 14.9622 0 25.0548C0 28.1271 0.985659 33.3885 4.06304 36C4.34895 34.9247 4.81545 33.9108 5.43996 33.0198Z" fill="url(#paint0_linear_0_17)"/>
<defs>
<linearGradient id="paint0_linear_0_17" x1="12.9266" y1="36.0097" x2="12.9266" y2="0.00798693" gradientUnits="userSpaceOnUse">
<stop stop-color="#004669"/>
<stop offset="0.0926" stop-color="#004F76"/>
<stop offset="0.2657" stop-color="#005B8B"/>
<stop offset="0.4568" stop-color="#00649B"/>
<stop offset="0.6779" stop-color="#006AA5"/>
<stop offset="0.9986" stop-color="#006DAA"/>
</linearGradient>
</defs>
</svg>
