<svg width="12" height="9" viewBox="0 0 12 9" fill="none" xmlns="http://www.w3.org/2000/svg">
<path d="M1.60938 0.0897634C0.415037 0.359453 -0.182133 0.850673 0.04903 1.36116C0.203138 1.69827 0.569146 1.76569 0.964049 1.51527C1.51306 1.17815 2.1006 1.01441 2.81335 1.01441C3.89211 1.01441 4.68191 1.38042 5.13461 2.09317C5.46209 2.61329 5.75104 2.60366 6.27116 2.04501C6.75275 1.5249 7.27286 1.36116 8.12046 1.44784C8.95842 1.53453 9.5267 1.75606 10.0179 2.17986C10.6344 2.72887 10.8848 3.35494 10.9329 4.50112C11.01 6.18668 10.5091 7.23654 9.32443 7.88187C9.1318 7.98782 9.02585 8.12267 9.02585 8.24788C9.02585 9.134 9.93123 8.98953 10.8944 7.94929C11.7035 7.0728 12.0888 5.79178 11.9828 4.26032C11.8961 2.90224 11.3278 1.83312 10.3647 1.19742C9.60375 0.706197 9.07401 0.523193 8.19751 0.475034C7.29213 0.417244 6.57938 0.552088 6.08815 0.8892L5.75104 1.12036L5.26945 0.773619C5.0094 0.590615 4.54707 0.349821 4.23885 0.23424C3.555 -0.00655466 2.33176 -0.0739768 1.60938 0.0897634Z" fill="#294971"/>
</svg>
